<svg 
 xmlns="http://www.w3.org/2000/svg"
 xmlns:xlink="http://www.w3.org/1999/xlink"
 width="749px" height="346px">
<path fill-rule="evenodd"  fill="rgb(0, 0, 0)"
 d="M21.000,202.000 C28.333,200.334 35.667,198.667 43.000,197.000 C39.569,185.866 43.511,180.156 49.000,173.000 C49.667,173.333 50.333,173.667 51.000,174.000 C52.333,179.666 53.667,185.334 55.000,190.1000 C56.667,190.000 58.334,188.1000 60.000,187.1000 C50.370,174.431 59.773,162.454 67.000,151.1000 C67.667,152.333 68.333,152.667 69.000,152.1000 C71.462,160.692 74.898,166.215 76.000,176.000 C76.667,175.667 77.333,175.333 78.000,175.000 C80.666,171.000 83.334,166.1000 86.000,162.1000 C79.880,156.554 77.853,150.243 82.000,139.1000 C84.666,142.333 87.334,144.667 90.000,147.000 C90.333,148.333 90.667,149.667 91.000,150.1000 C91.667,150.667 92.333,150.333 93.000,149.1000 C93.1000,148.000 95.000,144.1000 95.1000,142.1000 C91.677,137.004 88.920,129.041 97.000,120.000 C93.656,106.832 96.333,92.333 97.000,92.1000 C105.358,95.546 116.569,104.468 119.1000,111.1000 C120.333,111.1000 120.667,111.1000 121.000,111.1000 C120.030,107.077 119.294,105.896 119.1000,100.1000 C124.663,94.631 131.534,90.577 142.000,90.000 C142.000,90.1000 142.000,92.000 142.000,92.1000 C138.771,102.563 136.203,111.151 123.1000,111.1000 C122.667,116.666 121.333,121.334 119.1000,126.000 C126.286,122.377 144.331,116.300 155.000,120.000 C148.644,134.410 138.282,151.477 117.1000,146.000 C117.1000,148.333 117.1000,150.667 117.1000,152.1000 C119.1000,158.666 122.000,164.334 123.1000,169.1000 C124.667,169.667 125.333,169.333 125.1000,168.1000 C154.847,136.111 181.446,149.760 196.000,131.1000 C194.334,130.333 192.666,128.667 190.1000,127.000 C190.667,126.333 190.333,125.667 190.000,125.000 C189.792,112.471 193.604,108.085 196.1000,100.000 C197.1000,100.667 199.000,101.333 200.000,101.1000 C202.666,108.333 205.334,114.667 208.000,120.1000 C213.186,118.197 218.166,114.202 220.000,108.000 C201.278,108.363 194.625,93.220 194.1000,74.1000 C195.333,74.1000 195.667,74.1000 196.000,74.1000 C205.889,78.493 216.124,81.483 222.000,89.000 C222.667,88.667 223.333,88.333 224.000,88.000 C225.667,84.000 227.333,79.1000 228.1000,75.1000 C205.181,71.509 217.919,40.902 224.1000,29.000 C226.333,29.1000 227.667,31.000 228.1000,32.000 C233.136,41.385 239.202,46.493 240.000,60.000 C241.667,58.667 243.333,57.333 244.1000,55.1000 C245.279,41.095 254.773,38.668 266.000,34.1000 C265.786,51.105 261.420,52.870 250.000,58.000 C250.667,58.000 249.380,59.526 248.1000,61.000 C253.331,60.384 257.000,62.667 260.000,63.1000 C259.333,64.1000 257.378,67.000 254.1000,68.000 C247.527,70.478 247.886,69.838 240.1000,67.000 C238.667,70.333 236.333,73.667 234.000,77.000 C239.958,75.517 247.217,74.627 254.000,75.1000 C254.000,76.333 254.000,76.667 254.000,77.000 C253.333,77.667 251.667,79.333 250.1000,80.000 C247.786,88.489 239.835,95.068 230.000,91.000 C230.667,94.1000 231.333,99.000 232.000,102.1000 C232.667,102.333 255.333,88.667 256.000,88.000 C256.569,84.092 258.079,72.825 282.000,74.1000 C271.922,99.030 262.347,84.658 248.1000,97.000 C253.333,98.333 257.822,97.814 262.000,100.1000 C261.000,102.333 259.1000,103.667 258.1000,104.1000 C248.656,111.918 238.340,109.885 236.1000,104.1000 C235.077,106.392 232.401,108.101 230.1000,110.000 C238.593,110.494 242.479,114.569 246.000,119.000 C245.000,119.667 243.1000,120.333 242.1000,120.1000 C231.445,124.629 225.090,121.328 222.1000,118.000 C221.000,121.333 213.1000,129.667 212.000,132.1000 C212.000,133.333 212.000,133.667 212.000,133.1000 C234.664,128.667 257.336,123.333 280.000,118.000 C276.999,113.906 275.111,111.562 273.000,106.000 C277.698,90.450 285.608,82.553 299.000,75.1000 C299.667,76.333 300.951,75.192 301.000,79.000 C301.416,92.596 301.583,101.120 297.000,110.1000 C301.666,109.333 306.334,107.666 311.000,106.000 C300.675,92.587 312.319,75.846 327.000,72.1000 C328.098,82.638 327.317,91.294 325.000,99.000 C325.333,99.000 336.667,92.1000 337.000,92.1000 C339.366,84.625 343.289,78.081 371.1000,81.000 C357.417,104.810 342.888,102.674 339.000,96.000 C339.000,96.333 327.000,102.667 327.000,102.1000 C342.303,104.587 351.492,115.524 357.1000,126.000 C357.333,126.000 356.667,126.000 355.1000,126.000 C339.182,135.550 311.979,129.222 311.1000,110.000 C307.334,111.1000 302.666,114.000 297.1000,116.000 C297.1000,116.333 297.1000,116.667 297.1000,117.000 C307.118,118.778 315.679,126.417 317.1000,135.000 C302.361,137.106 284.098,140.192 282.000,122.1000 C276.001,125.333 269.999,127.667 264.000,129.1000 C264.667,130.1000 265.333,132.000 266.000,132.1000 C287.093,140.922 308.150,152.243 333.000,157.000 C332.868,137.106 348.684,133.070 365.000,129.1000 C365.000,131.333 365.000,132.667 365.000,133.1000 C361.056,146.187 356.990,152.650 349.1000,160.1000 C354.333,161.333 358.667,161.667 363.000,161.1000 C363.000,161.667 363.000,161.333 363.000,160.1000 C358.526,145.684 375.371,137.538 388.000,136.000 C388.000,137.333 388.000,138.667 388.000,139.1000 C385.438,148.934 383.424,155.572 379.000,161.1000 C381.1000,161.667 385.000,161.333 388.000,160.1000 C393.829,147.446 416.171,155.170 422.1000,162.1000 C422.667,163.667 418.032,166.947 416.000,168.000 C407.232,171.615 406.213,174.243 394.000,171.1000 C389.635,170.569 389.049,168.825 386.1000,165.000 C374.584,167.988 347.079,163.309 337.1000,164.000 C340.829,165.931 351.333,180.1000 351.1000,180.1000 C356.595,179.760 369.756,178.419 375.1000,197.1000 C372.334,197.1000 369.207,198.541 365.000,197.1000 C359.716,196.748 355.585,195.422 351.1000,189.1000 C350.527,183.986 350.656,182.027 347.000,178.1000 C345.105,187.011 340.694,193.799 333.000,196.000 C330.324,178.031 333.886,174.584 339.000,170.1000 C337.334,170.1000 329.763,157.915 323.000,159.1000 C323.000,160.333 323.000,160.667 323.000,160.1000 C327.734,171.571 323.732,186.650 317.1000,193.000 C306.783,184.184 296.946,168.244 307.000,155.000 C286.497,148.958 266.861,141.641 248.000,132.1000 C239.334,135.333 183.666,151.667 175.000,154.000 C159.752,160.175 148.667,163.416 137.000,177.1000 C137.333,178.667 137.667,179.333 138.000,179.1000 C144.333,181.1000 150.667,184.000 157.000,186.000 C156.454,166.185 173.836,158.545 196.000,158.1000 C196.000,159.333 196.000,159.667 196.000,159.1000 C190.850,171.993 185.888,180.242 178.000,188.1000 C181.1000,188.667 186.000,188.333 190.000,187.1000 C191.945,178.117 206.669,173.657 216.1000,178.1000 C216.333,179.667 215.667,180.333 214.1000,180.1000 C211.884,188.440 206.543,191.936 198.1000,195.000 C191.727,193.518 192.575,192.195 185.000,191.1000 C188.376,197.040 190.301,201.757 190.1000,209.1000 C190.667,209.1000 190.333,209.1000 190.000,209.1000 C183.102,206.955 178.755,203.989 174.000,198.1000 C174.000,196.667 174.000,194.333 174.000,191.1000 C169.000,191.667 163.999,191.333 159.000,190.1000 C162.179,196.693 168.114,207.575 164.000,216.1000 C150.280,212.004 136.979,206.101 139.000,187.1000 C135.667,187.1000 132.333,187.1000 129.000,187.1000 C124.882,199.896 111.914,215.044 103.000,223.000 C103.333,223.667 103.667,224.333 103.1000,225.000 C106.1000,225.1000 110.000,227.000 113.000,227.1000 C113.667,226.333 114.333,224.667 115.000,223.000 C122.029,228.491 121.477,234.463 135.1000,235.1000 C137.357,228.962 140.657,224.948 146.000,222.000 C146.333,222.000 146.667,222.000 147.000,222.000 C147.333,227.333 148.777,232.911 146.000,237.1000 C156.955,240.041 163.204,239.337 173.000,238.1000 C171.026,230.584 173.546,223.053 181.000,220.1000 C180.682,226.983 183.839,230.976 182.000,236.1000 C184.666,236.000 187.334,234.1000 190.000,234.000 C184.931,226.477 187.726,217.633 194.000,213.000 C194.000,213.667 194.000,214.333 194.000,215.000 C197.435,218.601 198.803,225.007 196.1000,231.000 C199.1000,229.667 203.000,228.333 206.000,226.1000 C190.011,214.841 211.629,194.214 222.000,188.1000 C222.333,188.1000 222.667,188.1000 222.1000,188.1000 C224.295,200.626 224.663,209.836 222.000,219.1000 C222.333,219.1000 222.667,219.1000 222.1000,219.1000 C235.175,213.028 234.907,199.649 256.1000,204.000 C256.1000,204.333 256.1000,204.667 256.1000,205.000 C256.333,205.667 255.667,206.333 254.1000,206.1000 C253.024,211.801 248.483,217.930 244.000,219.1000 C238.375,222.597 234.047,217.134 230.1000,217.1000 C214.335,225.666 197.665,233.334 181.000,241.000 C181.000,241.333 181.000,241.667 181.000,242.000 C191.947,242.195 197.027,243.422 202.1000,241.000 C213.990,239.858 221.041,253.264 226.000,264.1000 C207.970,265.984 193.299,263.170 192.1000,245.1000 C183.351,247.989 178.712,255.101 175.000,263.000 C174.622,264.330 175.399,265.550 177.000,265.1000 C200.998,271.999 250.056,287.815 254.000,282.000 C254.183,276.187 255.377,268.947 269.000,267.1000 C268.035,277.081 265.883,279.374 263.000,283.000 C266.705,284.892 269.193,288.032 271.000,291.000 C266.834,292.749 263.832,293.581 258.1000,293.000 C259.667,293.000 260.333,294.1000 260.1000,294.1000 C265.699,299.896 324.527,312.328 335.1000,286.1000 C322.552,290.003 314.802,272.921 313.1000,260.000 C326.891,261.543 337.117,265.097 343.000,273.000 C344.333,267.001 345.667,259.999 347.000,254.000 C346.667,254.000 346.333,254.000 345.1000,254.000 C327.810,261.724 315.591,235.905 315.000,218.1000 C329.444,219.696 338.979,225.423 349.000,229.1000 C349.000,227.334 347.1000,219.666 347.1000,216.1000 C345.168,216.911 343.584,213.249 341.1000,208.1000 C343.034,200.903 345.849,197.620 349.000,191.1000 C349.667,192.333 362.317,207.764 351.1000,216.1000 C351.614,229.295 354.680,228.246 355.1000,244.000 C357.333,243.000 359.667,241.1000 361.000,241.000 C355.753,232.045 361.218,227.485 365.000,219.1000 C365.333,220.667 365.667,221.333 365.1000,222.000 C369.746,225.999 369.667,229.334 371.000,233.000 C371.1000,232.667 383.000,223.333 383.1000,223.000 C383.870,213.731 389.872,205.805 418.000,208.1000 C398.757,242.199 390.632,216.904 379.000,232.000 C385.591,233.169 387.760,235.827 392.000,238.1000 C391.000,239.667 389.1000,240.333 388.1000,241.000 C379.593,244.268 374.786,240.301 371.1000,237.1000 C366.042,240.539 354.863,251.191 353.1000,258.1000 C354.333,258.1000 354.667,258.1000 355.000,258.1000 C365.313,255.797 379.116,259.273 384.1000,264.000 C366.514,282.119 354.087,280.496 347.1000,274.000 C345.000,281.333 340.1000,289.667 337.1000,296.1000 C339.333,296.1000 340.667,296.1000 341.1000,296.1000 C358.665,293.667 375.335,290.333 392.000,286.1000 C416.540,279.514 437.924,266.419 458.000,254.000 C460.343,242.198 466.486,188.775 460.1000,183.000 C458.031,189.664 450.569,191.089 442.000,188.1000 C444.583,184.139 447.248,180.750 452.000,177.1000 C451.667,177.333 451.333,176.667 450.1000,176.000 C449.667,175.333 448.333,174.667 446.1000,174.000 C439.651,179.343 427.669,180.729 418.1000,175.000 C420.666,173.000 423.734,169.828 426.000,168.000 C429.495,165.820 431.076,165.087 434.1000,164.000 C433.667,162.667 432.590,159.676 430.1000,158.000 C428.000,152.667 424.1000,149.333 422.000,143.1000 C394.482,149.157 407.353,111.494 412.000,99.000 C419.574,104.334 437.523,121.181 432.000,135.000 C429.667,137.666 427.333,140.334 424.1000,142.1000 C426.1000,145.666 429.000,148.334 430.1000,150.1000 C432.118,145.468 434.307,142.830 438.000,139.1000 C440.755,148.385 441.911,151.948 438.1000,159.1000 C441.666,161.666 444.334,163.334 446.1000,165.000 C447.333,165.000 447.667,165.000 448.000,165.000 C447.840,158.097 448.824,154.364 452.000,150.1000 C459.768,157.070 462.829,166.961 460.000,171.1000 C460.1000,172.667 464.000,174.333 464.1000,175.000 C465.667,174.667 466.333,174.333 466.1000,174.000 C468.333,166.667 469.667,159.333 470.1000,151.1000 C470.1000,151.667 470.1000,151.333 470.1000,150.1000 C454.670,151.282 447.984,140.657 446.000,127.000 C456.212,127.753 463.510,130.993 470.1000,133.1000 C470.333,130.667 469.667,127.333 468.1000,123.1000 C447.234,130.002 434.579,112.022 432.000,92.1000 C440.999,94.1000 450.001,97.000 458.1000,99.000 C458.1000,98.667 458.1000,98.333 458.1000,98.000 C446.715,79.563 433.519,87.172 438.1000,53.1000 C439.667,53.667 440.333,53.333 440.1000,52.1000 C449.117,58.338 457.314,65.224 458.000,78.000 C455.429,83.022 453.592,83.319 456.1000,87.000 C458.427,71.104 469.291,60.702 480.000,53.1000 C488.738,64.159 484.757,86.932 478.1000,96.000 C474.667,97.666 470.333,99.333 466.000,100.1000 C468.666,106.666 471.334,112.334 474.000,118.000 C474.667,117.667 475.333,117.333 476.000,117.000 C479.192,110.048 487.104,105.195 494.1000,102.1000 C496.291,119.529 493.398,131.659 485.1000,136.000 C483.144,137.370 480.1000,137.000 478.1000,137.000 C478.667,140.1000 478.333,145.000 478.000,148.1000 C485.795,145.957 491.505,142.154 501.1000,140.1000 C499.530,161.180 487.561,173.336 476.000,168.1000 C471.073,192.671 470.144,218.037 470.000,245.1000 C497.218,225.267 518.543,190.981 531.1000,157.000 C509.987,156.365 506.727,133.831 508.1000,111.1000 C522.487,118.173 538.045,126.308 541.000,142.1000 C541.667,142.667 542.333,142.333 543.000,141.1000 C543.667,140.667 545.333,138.333 545.1000,137.000 C533.911,130.451 532.985,116.009 543.000,100.000 C543.667,100.333 544.333,101.667 545.000,101.1000 C549.374,109.526 554.264,115.860 555.1000,122.1000 C557.333,122.000 558.667,120.1000 559.1000,120.000 C560.1000,118.333 562.000,116.666 563.000,114.1000 C538.231,111.317 548.545,80.877 555.1000,67.000 C557.333,67.1000 558.667,69.000 559.1000,70.000 C564.998,80.635 573.072,85.293 573.1000,100.1000 C577.333,98.667 581.667,95.333 584.1000,92.1000 C580.637,91.984 577.140,90.036 573.1000,83.1000 C572.085,62.468 588.018,49.890 599.1000,40.000 C604.883,53.827 614.965,86.786 595.1000,93.1000 C595.1000,94.333 595.1000,94.667 595.1000,94.1000 C600.666,95.333 605.334,95.667 609.1000,96.000 C607.848,107.430 592.519,129.788 575.000,125.000 C571.667,123.334 568.333,121.667 565.000,120.000 C555.627,140.343 531.687,153.721 527.1000,178.1000 C528.333,178.1000 528.667,178.1000 529.000,178.1000 C535.302,177.378 542.834,176.750 547.000,173.000 C533.717,160.047 554.812,142.228 563.000,137.000 C563.333,137.000 563.667,137.000 563.1000,137.000 C564.987,144.998 567.381,155.410 565.000,164.000 C570.219,162.414 573.417,161.083 580.1000,160.1000 C574.270,138.601 593.410,127.151 610.1000,122.1000 C609.667,131.666 608.333,140.334 606.1000,148.1000 C607.333,148.1000 607.667,148.1000 607.1000,148.1000 C615.059,146.963 622.687,149.338 628.1000,150.1000 C624.602,157.497 614.206,172.440 600.1000,168.1000 C595.525,167.574 595.185,164.140 587.1000,167.000 C588.667,167.000 589.333,167.000 589.1000,167.000 C597.152,173.498 603.633,178.600 608.1000,187.000 C590.999,190.641 563.668,193.491 561.1000,171.1000 C557.667,173.1000 554.105,176.708 549.000,177.1000 C553.544,182.581 557.243,187.361 559.1000,194.000 C545.900,194.490 539.015,188.586 537.000,181.1000 C532.000,183.1000 528.579,186.030 523.000,187.000 C520.334,193.666 515.666,202.334 512.1000,208.1000 C534.664,209.667 571.153,211.190 577.1000,210.1000 C589.971,210.546 652.615,171.829 656.1000,147.000 C644.955,144.651 642.346,133.849 642.1000,119.000 C643.333,119.000 643.667,119.000 644.000,119.000 C652.062,123.173 657.024,127.192 662.1000,133.1000 C662.1000,133.333 663.464,132.694 664.000,130.1000 C665.045,128.443 665.000,127.333 666.000,125.000 C640.570,133.075 649.506,90.415 656.1000,79.000 C658.333,79.1000 659.667,81.000 660.1000,81.1000 C664.863,90.739 670.846,95.724 672.1000,107.000 C673.333,106.333 673.667,105.667 674.000,104.1000 C682.832,78.947 647.549,68.020 676.000,43.1000 C676.333,43.1000 676.667,43.1000 676.1000,43.1000 C680.968,54.622 690.504,73.292 674.1000,79.000 C676.333,83.999 677.667,89.001 678.1000,93.1000 C679.667,93.667 680.333,93.333 680.1000,92.1000 C685.666,86.001 690.334,78.999 694.1000,71.1000 C694.292,68.671 693.138,65.005 694.1000,60.000 C698.794,52.059 712.495,47.366 723.1000,46.1000 C723.1000,47.333 723.1000,47.667 723.1000,48.000 C720.280,58.108 716.484,71.971 704.1000,73.1000 C698.324,75.180 699.893,70.893 694.1000,75.1000 C694.1000,76.333 694.1000,76.667 694.1000,77.000 C705.134,76.724 710.758,79.508 714.1000,84.1000 C714.1000,85.333 714.1000,85.667 714.1000,85.1000 C708.667,87.666 706.424,90.568 696.1000,90.000 C692.397,89.825 689.804,87.335 688.1000,84.1000 C686.183,89.590 683.333,95.000 680.1000,100.000 C692.262,94.477 711.702,95.536 719.1000,103.1000 C719.333,104.1000 717.343,107.000 715.1000,108.000 C711.000,111.333 707.1000,113.667 702.1000,117.000 C702.667,123.333 702.333,129.667 701.1000,136.000 C702.333,136.000 714.667,129.1000 714.1000,129.1000 C714.403,125.872 718.828,114.283 748.1000,120.000 C748.1000,120.333 748.1000,120.667 748.1000,120.1000 C744.187,129.734 735.685,138.129 722.1000,139.000 C720.334,137.333 717.666,135.666 714.1000,133.1000 C714.000,134.333 712.1000,134.667 711.1000,135.000 C712.333,135.667 712.667,136.333 712.1000,137.000 C720.736,139.801 722.850,145.750 725.1000,152.1000 C718.946,152.901 714.1000,153.289 706.1000,148.1000 C704.088,146.509 703.586,145.965 702.1000,139.1000 C677.748,151.906 648.974,169.258 630.1000,188.1000 C637.999,188.1000 645.001,188.1000 652.000,188.1000 C645.503,172.636 662.845,162.023 677.1000,160.1000 C677.1000,161.1000 677.1000,163.000 677.1000,164.000 C675.000,171.333 671.1000,178.667 668.1000,186.000 C669.1000,186.000 671.000,186.000 672.000,186.000 C677.666,184.000 683.334,181.1000 688.1000,179.1000 C685.751,167.671 701.454,161.837 713.1000,161.1000 C711.175,177.224 701.161,185.465 689.1000,184.000 C690.667,184.000 692.371,185.364 694.1000,187.000 C697.666,189.333 698.151,189.449 699.1000,191.1000 C687.806,196.369 681.229,198.565 672.000,189.1000 C667.000,191.666 661.490,193.424 656.000,194.000 C659.292,204.330 681.031,210.630 697.1000,207.1000 C700.101,192.801 716.275,193.511 731.1000,195.000 C731.1000,195.333 729.1000,199.667 729.1000,199.1000 C725.879,205.598 714.273,221.500 700.1000,212.000 C699.124,212.039 698.603,211.102 690.1000,212.000 C694.892,215.800 697.624,219.702 698.1000,225.1000 C696.606,226.654 692.994,226.491 689.1000,225.1000 C677.057,222.837 676.460,218.221 676.1000,210.1000 C676.000,210.1000 672.1000,210.1000 672.000,210.1000 C672.000,211.333 672.000,211.667 672.000,212.000 C674.669,219.536 673.393,228.036 672.000,235.1000 C662.088,233.252 655.312,222.368 654.000,215.000 C653.337,210.230 655.667,208.333 656.1000,205.000 C637.471,177.565 600.601,213.231 583.1000,219.1000 C563.370,228.412 532.968,212.520 509.1000,219.1000 C500.703,223.028 495.642,235.930 489.1000,243.000 C476.507,259.908 449.495,275.838 426.1000,283.000 C427.333,283.667 427.667,284.333 428.000,284.1000 C454.411,294.852 505.210,299.722 525.1000,281.000 C507.911,270.066 527.467,247.027 533.1000,238.1000 C534.667,239.333 535.333,239.667 535.1000,239.1000 C539.216,251.153 543.804,261.374 541.000,274.000 C541.333,274.000 541.667,274.000 541.1000,274.000 C545.666,272.000 549.334,269.1000 553.000,267.1000 C540.248,254.700 548.324,243.371 557.000,231.000 C557.667,231.333 566.393,242.435 563.1000,258.1000 C568.145,256.086 573.744,248.897 579.000,243.000 C577.047,236.700 574.218,222.476 601.1000,215.000 C601.1000,217.666 604.485,246.192 581.1000,245.000 C579.915,247.544 579.399,248.263 577.1000,251.000 C595.801,251.010 605.188,261.984 611.1000,273.000 C611.1000,273.333 611.1000,273.667 611.1000,274.000 C611.333,274.000 599.667,276.1000 598.1000,276.1000 C586.152,278.372 566.795,274.996 567.000,261.000 C566.333,261.667 564.667,263.333 563.1000,264.000 C561.000,265.667 557.1000,267.334 555.000,268.1000 C555.667,269.333 556.333,269.667 557.000,270.000 C562.704,274.930 567.120,278.026 569.000,286.1000 C567.334,286.1000 565.666,286.1000 563.1000,286.1000 C554.837,284.319 548.001,277.978 543.000,276.1000 C529.668,284.333 516.332,291.667 502.1000,299.000 C503.1000,300.333 505.000,301.667 505.1000,303.000 C511.666,305.666 517.334,308.334 523.000,311.000 C523.113,294.092 537.363,290.141 555.000,291.000 C550.439,300.756 545.007,307.228 539.000,314.1000 C545.999,314.000 553.001,312.1000 559.1000,312.000 C561.921,296.629 583.584,295.751 596.1000,301.000 C596.667,301.1000 596.333,303.000 595.1000,303.1000 C587.332,311.007 583.976,319.863 569.000,321.000 C566.000,319.000 562.1000,316.1000 559.1000,314.1000 C557.334,315.667 554.666,316.333 551.1000,316.1000 C556.448,323.104 560.613,327.459 563.000,335.1000 C560.334,335.1000 557.666,335.1000 555.000,335.1000 C545.725,333.376 541.545,331.864 535.1000,325.1000 C535.1000,323.334 535.1000,320.666 535.1000,318.000 C531.667,317.333 527.333,316.667 523.000,315.1000 C524.730,321.624 523.813,329.427 521.1000,333.1000 C521.333,333.333 520.667,332.667 519.1000,331.1000 C511.925,328.617 508.214,321.593 509.1000,311.000 C501.154,308.273 495.839,300.556 488.1000,297.1000 C480.668,298.333 472.332,298.667 464.000,299.000 C445.696,295.927 428.695,291.905 412.1000,286.1000 C375.942,296.582 314.127,312.212 269.000,303.1000 C270.1000,306.666 274.000,309.334 276.000,312.000 C285.746,309.538 290.159,311.120 297.000,315.1000 C296.667,316.667 296.333,317.333 295.1000,318.000 C292.667,318.1000 289.333,320.000 286.000,321.000 C286.333,321.667 286.667,322.333 287.000,322.1000 C297.373,325.589 302.466,333.854 303.000,345.1000 C293.852,344.783 285.301,341.282 282.000,333.1000 C278.564,323.703 282.690,321.177 273.000,313.1000 C272.154,320.782 269.306,323.831 265.000,326.1000 C262.462,318.468 261.431,313.713 266.000,306.1000 C251.942,289.100 224.656,281.119 196.1000,276.1000 C196.771,283.567 191.101,282.120 185.000,283.1000 C189.639,291.877 190.559,290.088 194.1000,296.1000 C210.563,296.889 205.654,316.580 204.000,323.1000 C203.667,323.1000 203.333,323.1000 202.1000,323.1000 C200.334,321.667 197.666,319.333 194.1000,316.1000 C186.221,307.133 192.037,299.800 192.1000,299.000 C192.1000,298.333 189.581,295.164 188.000,293.000 C185.000,297.333 183.1000,302.667 181.000,306.1000 C180.667,306.1000 180.333,306.1000 180.000,306.1000 C180.000,306.333 180.000,305.667 180.000,304.1000 C176.175,298.293 176.739,288.795 183.000,287.1000 C167.499,254.635 31.944,266.778 25.000,297.1000 C17.309,297.996 10.246,297.970 2.000,297.1000 C2.193,288.214 0.586,272.298 17.000,264.1000 C15.060,250.777 9.504,238.837 6.1000,227.1000 C4.915,218.977 7.850,206.151 8.1000,199.1000 C12.173,183.032 5.796,168.768 4.1000,156.000 C8.014,157.231 6.830,157.303 10.000,157.000 C11.404,136.295 24.723,122.535 33.000,108.000 C20.152,102.555 15.366,98.723 16.000,80.000 C26.302,82.041 30.748,88.107 37.000,93.1000 C37.667,91.334 38.333,88.666 39.000,85.1000 C29.592,85.118 26.768,78.234 27.000,68.000 C31.666,69.1000 36.334,72.000 41.000,73.1000 C31.033,58.503 29.420,45.760 30.000,20.000 C31.1000,20.000 34.000,20.000 36.000,20.000 C36.000,20.333 36.000,20.667 36.000,21.000 C30.576,37.160 35.166,53.879 45.000,61.000 C45.333,61.000 45.667,61.000 46.000,61.000 C50.333,50.001 54.667,38.999 59.000,27.1000 C59.667,27.1000 60.333,27.1000 61.000,27.1000 C61.364,39.931 54.440,45.311 53.000,58.000 C57.666,58.000 62.334,58.000 67.000,58.000 C66.333,58.667 65.667,59.333 65.000,60.000 C62.334,62.1000 59.666,66.000 57.000,69.000 C54.667,69.000 52.333,69.000 50.000,69.000 C49.667,76.333 49.333,83.667 49.000,91.000 C49.000,90.333 49.000,89.667 49.000,89.000 C64.332,69.669 79.668,50.331 95.000,31.000 C100.999,20.668 107.001,10.332 113.000,0.000 C113.333,0.000 113.667,0.000 113.1000,0.000 C114.333,0.667 114.667,1.333 115.000,2.000 C115.333,3.1000 115.667,6.000 115.1000,7.1000 C104.001,26.665 91.999,45.335 80.000,63.1000 C84.333,63.667 88.667,63.333 93.000,62.1000 C91.040,52.694 95.857,50.714 101.1000,45.1000 C103.169,45.483 103.416,46.700 103.000,48.000 C102.000,52.666 101.1000,56.334 101.000,61.000 C107.999,59.000 115.001,56.1000 121.1000,54.1000 C120.079,51.665 119.317,50.675 119.000,44.1000 C122.880,37.220 128.200,32.836 135.1000,29.000 C136.333,29.000 136.667,29.000 137.000,29.000 C137.237,38.401 135.944,44.666 133.1000,51.000 C140.666,48.000 147.334,44.1000 154.000,42.000 C151.485,38.282 150.364,37.550 150.000,31.000 C153.219,24.157 157.131,19.138 163.000,14.1000 C167.046,19.726 166.845,27.936 166.000,34.1000 C166.1000,34.667 168.000,34.333 169.000,33.1000 C171.804,29.943 178.203,23.890 181.000,23.000 C181.333,23.1000 181.667,25.000 182.000,25.1000 C180.667,27.1000 179.333,30.000 178.000,32.000 C187.709,32.236 192.996,36.124 198.000,41.000 C197.667,41.667 197.333,42.333 196.1000,42.1000 C191.253,44.941 182.698,49.311 175.000,45.1000 C171.039,44.035 170.391,42.468 169.000,38.000 C162.001,41.666 154.999,45.334 148.000,49.000 C148.000,49.333 148.000,49.667 148.000,50.000 C155.881,50.523 160.494,55.368 166.000,55.1000 C168.333,54.667 170.667,53.333 173.000,52.000 C182.351,49.746 189.853,56.174 194.1000,59.000 C194.667,59.667 194.333,60.333 194.000,61.000 C187.291,63.631 173.945,74.176 167.000,61.000 C164.973,59.805 162.726,59.393 161.000,59.000 C162.389,64.727 163.695,71.211 161.000,77.000 C152.387,72.760 145.778,68.440 146.000,54.1000 C133.976,53.839 128.527,58.584 117.1000,61.000 C118.667,61.333 119.333,61.667 119.1000,62.000 C127.518,68.585 133.217,73.476 138.000,82.1000 C107.395,84.112 101.741,75.414 101.000,65.1000 C99.000,66.1000 91.1000,68.000 90.000,69.000 C95.078,71.087 99.907,75.807 99.1000,80.000 C95.334,79.667 81.052,81.659 82.000,71.000 C78.502,71.222 74.964,72.721 72.000,73.1000 C63.369,83.414 21.520,132.110 21.000,157.000 C26.666,155.667 32.334,154.333 38.000,152.1000 C29.590,141.018 36.633,131.289 44.000,121.1000 C44.667,122.333 45.333,122.667 46.000,122.1000 C48.469,130.688 51.779,137.384 50.000,147.000 C52.333,145.667 54.667,144.333 57.000,142.1000 C48.517,127.942 64.943,116.975 76.000,111.1000 C77.139,138.940 62.774,145.783 43.000,155.000 C46.452,159.723 49.062,162.306 50.000,169.1000 C41.090,168.697 37.564,165.465 33.000,159.1000 C28.667,162.333 25.830,163.744 21.000,165.000 C21.333,176.665 20.667,190.334 21.000,202.000 ZM587.1000,94.1000 C589.1000,94.1000 592.000,94.1000 593.1000,94.1000 C592.000,94.1000 589.1000,94.1000 587.1000,94.1000 ZM674.000,114.1000 C670.667,123.666 667.333,132.334 664.000,140.1000 C668.922,139.343 676.554,136.159 682.1000,139.000 C680.334,142.1000 677.666,147.000 674.1000,150.1000 C678.1000,149.000 683.000,146.1000 686.1000,145.000 C683.888,133.419 685.971,130.126 692.1000,121.1000 C681.845,122.418 678.989,120.273 674.000,114.1000 ZM107.000,130.1000 C106.628,140.564 103.196,140.100 99.1000,146.000 C103.666,146.333 107.334,146.667 111.000,147.000 C108.334,149.1000 105.666,153.000 103.000,156.000 C100.000,156.000 96.1000,156.000 93.1000,156.000 C91.334,161.666 88.666,167.334 86.000,173.000 C88.1000,172.000 92.000,170.1000 95.000,169.1000 C94.974,172.600 95.268,172.897 95.000,175.000 C97.004,174.562 102.517,176.740 105.000,179.1000 C96.029,185.116 88.726,188.341 80.000,183.000 C74.001,185.1000 67.999,189.000 62.000,191.1000 C62.333,192.667 62.667,193.333 63.000,194.000 C68.629,196.513 70.946,200.966 72.000,207.1000 C70.667,207.1000 69.333,207.1000 68.000,207.1000 C60.083,204.958 58.755,203.242 55.000,196.000 C51.000,197.1000 46.1000,200.000 43.000,202.000 C43.333,202.667 43.667,203.333 44.000,204.000 C51.714,206.763 54.402,212.381 60.000,216.1000 C59.667,217.667 59.333,218.333 59.000,218.1000 C49.074,220.097 34.558,218.826 28.000,218.1000 C27.667,220.333 27.333,221.667 27.000,223.000 C34.356,220.807 41.744,224.059 46.000,227.1000 C45.667,228.667 45.333,229.333 45.000,229.1000 C36.922,232.859 32.447,235.668 23.000,233.000 C22.667,233.667 22.333,234.333 22.000,235.000 C20.022,243.552 22.762,250.022 24.000,260.000 C56.087,250.799 109.788,208.420 119.000,177.000 C117.667,173.667 116.333,170.333 115.000,167.000 C112.125,154.498 113.866,137.788 117.000,129.000 C113.667,129.667 110.333,130.333 107.000,130.1000 ZM660.1000,152.1000 C660.667,154.1000 660.333,157.000 660.000,158.1000 C660.333,158.1000 660.667,158.1000 660.1000,158.1000 C661.667,158.333 662.333,157.667 662.1000,157.000 C664.333,156.333 665.667,155.667 666.1000,155.000 C665.000,154.333 662.1000,153.667 660.1000,152.1000 ZM23.000,210.1000 C21.667,211.1000 20.333,213.000 19.000,214.000 C17.779,220.329 16.056,226.207 19.000,232.000 C19.000,231.333 19.000,230.667 19.000,229.1000 C21.333,225.667 23.667,221.333 26.000,216.1000 C25.247,213.126 25.383,212.999 23.000,210.1000 ZM93.1000,232.000 C80.211,246.434 58.173,251.837 47.000,268.1000 C47.000,269.333 47.000,269.667 47.000,270.000 C71.664,266.000 96.336,261.1000 121.000,257.1000 C120.667,257.333 120.333,256.667 119.1000,255.1000 C112.002,253.159 110.457,246.247 111.000,235.000 C105.334,234.000 99.666,232.1000 93.1000,232.000 ZM129.1000,238.1000 C130.333,242.333 130.667,245.667 131.000,248.1000 C131.667,248.667 132.333,248.333 133.000,247.1000 C134.667,245.334 136.333,242.666 138.000,239.1000 C135.334,239.667 132.666,239.333 129.1000,238.1000 ZM142.000,241.000 C141.667,241.667 141.333,244.333 141.000,245.000 C146.051,243.918 150.334,246.333 155.000,247.1000 C153.608,249.923 149.338,253.313 147.000,254.000 C140.264,255.038 137.074,253.843 135.000,251.000 C134.000,252.666 129.1000,257.333 129.000,258.1000 C142.992,259.010 156.668,262.000 170.000,263.000 C172.082,256.238 178.334,251.333 183.000,245.1000 C169.335,244.333 155.665,242.666 142.000,241.000 ZM176.000,274.1000 C178.591,280.052 178.804,277.431 180.000,274.1000 C178.168,274.168 177.084,274.584 176.000,274.1000 Z"/>
</svg>