<svg xmlns="http://www.w3.org/2000/svg" width="900" height="520" viewBox="0 0 900 520">
  <defs>
    <style>
      .cls-1 {
        fill: #e3dedd;
        fill-rule: evenodd;
      }
    </style>
  </defs>
  <path id="Color_Fill_3" data-name="Color Fill 3" class="cls-1" d="M663,96h0ZM834.907,53.011l18.04,6.935c-1.15-3.413-3.359-8.706-1.387-13.176l8.326,5.548Q857.8,48.157,855.723,44c-8.036,2.158-10.321.713-15.959-4.161C840.054,47.57,838.566,49.551,834.907,53.011Zm26.366,9.015,4.164,0.694V62.026l-1.388-1.387-1.388-2.774Q861.968,59.945,861.273,62.026Zm40.244,442.436q1.041,1.386,2.081,2.774c4.392,0.847,8.47,2.041,12.49,0H914.7l-9.02-4.855C902.992,502.9,902.9,502.809,901.517,504.462Zm14.571-49.237c10.015,9.562,13.763,24.845,25.672,32.593h0.694L934.128,436.5l-1.388.694c-1.971,5.546-6.767,6.618-14.571,6.241Q917.128,449.33,916.088,455.225Zm4.857-24.965,6.938-.693q-0.346-.695-0.694-1.387l-5.551-3.468Zm1.387-8.321c0.463,0.231,2.313.462,2.776,0.693-0.751-3.5.925-6.473,2.081-9.709a15.06,15.06,0,0,1,4.163,5.548c0.72,4.672-.108,6.883-2.081,8.322,1.156,0.693,4.394,3.467,5.551,4.161,0.007-9.7,2.081-19.187,2.775-28.433-4.692-1.444-8.1-5.779-11.795-9.015Q924.066,407.722,922.332,421.939Zm-27.06,83.91L891.8,490.592c-7.725,2.38-11.688-.354-16.653-4.16l0.694-1.387,11.8-2.774-2.082-3.468c-9.414,6.679-17.725.157-24.978-4.854l0.693-1.387c5.337-1.707,9.169-4.09,15.959-4.854q-0.346-.695-0.694-1.387l-8.326-5.548c-4.472,4.244-8.852,5.65-15.959,2.774L857.11,458l2.776-.693q-0.346-.694-0.694-1.387c-1.388-.694-3.469-1.387-4.857-2.081-4.161,3-9.686,4.91-15.959-.693-9.136,2.319-19.2.462-18.734,0,1.767-5.8,7.957-13.571,13.184-15.95V436.5c-3.416.673-4.235,1.184-7.633,0.694-4.419-3.234-7.232-8-7.632-15.256h2.081c6.636,2.239,12.594,4.02,13.184,12.482l9.713,2.774c-2.513-4.359-6.73-16.873-4.163-24.272,10,4.408,21.84,11.594,18.041,25.659h4.856l11.8-4.161-0.694-1.387c-22.82-20-13.349-38.45-25.672-48.543l-3.47,3.467-1.387.694c-8.694.144-11.737-2.5-17.347-4.855l1.388-2.08,13.183-5.548c-1.944-3.6-4.717-7.05-9.02-8.321,0.252,12.983-10.255,17.6-22.9,17.336v-0.693c2.423-6.858,4.5-13.955,9.714-18.03q-0.346-.695-0.694-1.387l-8.326-3.468c-3.116,16.518-24.353,7.685-32.611,2.774l2.082-2.774c6.512-2.868,10.056-7.074,19.427-7.628l-2.775-3.467c-10.342-.194-12.026-6.778-14.571-14.563,11.175,0.148,12.4,3.176,15.959,11.1,0-.462,1.058.431,2.081,0.694-0.427-3,1.157-5.548,2.082-7.628a8.791,8.791,0,0,1,2.775,3.467c1.72,5.183,1.276,4.933-.694,9.709l6.939,4.854a32.369,32.369,0,0,1-.694-13.87h0.694c0.462,0.463,1.619,1.619,2.081,2.081,5.89,2.229,10.455,7.742,7.633,14.563l8.326-1.387c-0.463-.462-9.945-16.181-10.408-16.643-2.711-.395-10.529-1.442-9.02-18.031,16.673,6.989,6.7,13.629,15.265,22.885,0.925-3,.564-6.118,2.775-9.015l2.776,2.08c4.8,7.173,3.389,14.327,0,15.256a19.579,19.579,0,0,0,3.469,4.161c0.343-5.265,3.17-7.96,6.245-10.4l1.387,2.081c2.518,8.013.228,12.42-2.081,13.869,2.312,1.387,8.095,6.242,10.407,7.628h0.694l-11.1-47.156a29.746,29.746,0,0,1-8.326,4.854c-10.79-3.257-16.269-8.743-20.816-18.03,0.231-.462-0.561-1.353,2.082-1.387,9.433-.288,15.348-0.4,22.2,2.774q-1.735-4.854-3.469-9.709c-9.307,7.161-20.923-.914-22.9-11.095a44.657,44.657,0,0,1,18.041,1.387c0-.231-4.164-8.091-4.164-8.322-5.811-1.641-10.351-4.361-8.326-24.271,16.521,10.113,15.039,20.188,10.408,22.884,0.231,0,4.626,8.322,4.857,8.322,1.1-10.613,8.69-16.985,15.958-21.5v1.387c6.627,11.663,2.236,30.527-11.1,30.513q2.081,4.854,4.163,9.709H836.3c1.233-6.324,6.534-12.26,12.489-13.87,1.461,10.846,3.6,23.51-8.326,24.965l4.857,12.483,2.081-1.387c5.5-14.628,13.352-29.23,16.653-46.463-13.8.091-16.6-10.876-18.734-22.191h2.775a49.233,49.233,0,0,1,18.734,10.4q0.348-4.508.694-9.015h-0.694c-10.627,3.1-16.279-8.579-17.346-17.337h2.775c6.2,1.776,10.8,3.173,15.265,6.241q-0.346-3.12-.694-6.241c-9.4-4.042-4.045-19.536,1.388-24.272a25.018,25.018,0,0,1,3.469,4.855c2.508,6.08,4.332,6.787,2.776,15.256-0.993,3.027-2.2,3.434-4.857,4.854,2.073,8.611-1.173,27.685-.694,33.981,1.339-1.962,11.8-9.247,11.8-9.709-0.86-3.187-1.791-12.313,11.8-16.643,0,2.542.375,4.711,0,7.628-0.869,3.664-1.789,6.529-5.551,9.015-4.173,1.022-5.532.932-7.632,3.467,5.558,1.314,10.268,4.374,11.8,9.709-12.467,1.856-14.859-.614-17.346-4.161,0,1.156-9.079,6.406-7.633,11.1h0.694c7.335-3.283,17.8-.508,22.2,3.467-6.117,7.779-17.176,14.6-26.366,7.628A304.772,304.772,0,0,1,847.4,348.43c1.619,6.01,12.952,44.614,14.571,50.624,4.285,10.574,6.533,18.261,16.653,26.352l1.387-.694q2.082-6.586,4.164-13.176c-13.749.379-19.05-11.675-18.734-27.045h0.693c8.321,3.571,14.045,7.012,20.122,12.482q-0.346-4.16-.694-8.321c-6.857-1.349-9.952-11.56-6.244-18.724l1.387,1.387c5.163,2.161,7.588,5.865,9.714,11.1-1.028,5.043-1.946,4.455-2.081,9.708,3.5-2.341,6.77-3.676,12.489-4.161v0.694a31.292,31.292,0,0,1-7.632,11.1h-4.857q-0.348,5.2-.694,10.4c3.95-2.2,11.5-6.32,18.04-3.467-3.466,9.515-7.562,18.738-20.122,17.337v6.935c8.254,2.855,18.765,11.848,24.285,18.03l1.388-.694q1.039-3.12,2.081-6.241l-3.469-1.387c3.81-4.874,7.953-4.491,9.02-14.563a12.891,12.891,0,0,1-9.714-6.934v-0.694c3.7-.231,7.571-1.232,11.1.694,1.416-7.6.928-11.931,0.694-18.724-5.84,1.369-11.065-.379-12.49-5.548,4.152,0.221,6.922-1.968,11.1-.693l-2.082-5.548c-5.22,3.515-11.356,1.576-14.571-2.774h1.388c2.5-2.382,6.944-3.331,11.1-2.081l-2.776-6.241c-8.436,11.088-22.749-3.9-26.366-11.095v-0.694c8.067-.9,14.457-1.153,21.509.694v-0.694c-4.837-8.443-14.12-8.257-11.1-23.578h0.694l1.387,1.387c3.331,1.37,7.584,4.519,9.02,7.628,1.8,3.9-1.988,6.9-1.387,9.015l15.958,34.674h0.694c0.135-7.591.987-11.114-.694-15.256-0.792-7.622,8.509-12.511,16.653-15.95,0.683,12.5-1.27,22.677-13.183,22.884,1.38,6.692,6.314,9.909,11.795,12.483a1.682,1.682,0,0,0,2.082-1.387c4.162-16.642,15.136-50.662,11.1-53.4-4.034-.126-9.057-0.954-9.714-10.4,6.3,0.67,7.892,2.162,10.408,4.161a14.34,14.34,0,0,1,5.551-5.548,14.517,14.517,0,0,1,1.388,8.322c0-.462,1.387-0.925,1.387-1.387,3.4-3.258,12.023-44.054-5.551-52.01,2.084,9.325-9.769,14.7-18.734,15.256,1.071-8.939,3.537-16.031,9.02-20.111-4.162-.924-9.02-1.849-13.183-2.774v0.694c5.359,12.614-12.555,21.088-24.284,21.5,0.483-10.017,4.456-16.629,7.632-23.579-1.85,0-7.17.694-9.02,0.694-0.062,1.964-2.6,3.062-5.551,4.161-5.618-.718-7.9-2.669-11.8-4.855,0.231-.462,10.938-9.235,17.346-2.08,8.531,0.268,7.8-1.859,18.734-2.774-0.694-.924-1.388-2.543-2.082-3.467-6.213,3.639-9.377-.152-14.571-2.774l1.388-.694c2.775-2.6,5.089-2.542,7.632-3.467-0.231-.693-6.707-8.322-6.938-9.015-6.431.09-11.931-4.072-9.714-23.578,23.035,13.344,5.484,18.979,15.959,27.045,0.811-4.57,2.655-6.074,4.857-9.015l1.387,2.081c2.268,6.523-.484,9.857-2.081,11.789,1.762,4.131,9.152,11.883,14.571,12.482v-0.693c-2.222-7.152.189-16.724,3.469-20.8,12.572,12.82,11.446,21.438,6.938,25.659,5.088,2.08,10.871,4.854,15.959,6.935v-2.774l-6.939-34.674c-5.194-17.018-14.28-31.847-22.9-45.769-8.189-1.625-45.256-5.885-49.263-2.081,4.624,2.059,5.612,7.234,4.163,13.176a17.284,17.284,0,0,1-7.632-6.934l-1.388.693-1.388,2.774c3.707,5.1,4.67,13.405.694,19.417a41.666,41.666,0,0,1-4.857-4.854,19.251,19.251,0,0,1-2.775-6.241c-0.925.924-3,1.671-4.163,2.774-3.7,2.08-6.014,4.161-9.714,6.241,3.578,19.083-22.555,10.157-31.223,6.935,3.7-5.252,15.39-17.7,24.978-13.87l5.551,4.854,5.551-4.16a11.3,11.3,0,0,1-7.633-4.855c5.818-1.911,8.29-2.712,13.877-.693l3.47-5.548v-0.693c-4.79.111-7.38-.572-9.714-2.774,4.212-5.387,11.074-7.51,14.571-5.548,0.462-.694,1.619-2.774,2.081-3.468q-0.346-.693-0.694-1.386l-15.264-2.774h-0.694c0.2,11.324-7.177,15.961-16.653,17.337,0.523-7.082,2.771-12.143,4.857-17.337l-6.938,1.387c4.164,15.094-8.311,23.87-21.51,25.658q2.082-9.36,4.164-18.724h-0.694c-12.793,8.52-7.513,17.671-30.53,13.87q-0.346-.693-0.694-1.387c3.7-5.629,8.482-11.313,17.347-11.789,3.484,1.782,3.69,3.057,6.244.693-11.029-.989-18.247-8.523-22.9-15.95,7.049-6.059,22.85-3.3,29.142.694l3.469,9.015,11.8-5.548q-0.348-.693-0.694-1.387c-4.824-2.213-8.191-7.7-9.714-13.176,11.469-.895,19.885,1.111,22.9,6.242a9.4,9.4,0,0,1,.694,4.854l8.326,0.693c-2.111-5.406-4.75-9.365-5.551-16.643,14,1.713,22.437,10.013,19.428,18.03,16.424,3.417,34.024,4.061,53.427,4.161-14.386-18.875-38.176-33.663-61.753-42.995-0.44,15.265-16.076,17.526-31.223,15.95,4.283-9.353,9.927-20.142,21.509-22.191q-0.346-.695-0.694-1.387c-0.925-.463-2.544-1.619-3.469-2.081-4.544,8.384-14.565,9.026-25.673,2.081,0.232-.463,1.157-0.925,1.388-1.387,5.222-3.034,9.617-6.425,14.571-7.629l-2.082-2.773-3.469-2.081c-2.555,17.177-23.676,10.024-33.305,4.854l2.082-2.773c7.379-3.466,10.611-9.065,21.509-9.709-1.619-2.311-3.932-5.317-5.551-7.628-0.705,3.025-2.056,5.45-6.244,7.628-14.94,1.328-23.667-9.722-30.53-18.03,9.595-3.387,32.463-10.378,37.468,2.773h0.694q0.346-4.852.694-9.708c7.93,1.493,23.444,12.123,20.122,24.271q-1.736,3.468-3.47,6.935c14.116,6.5,23.4,23.1,40.938,25.659v-0.694c-1.126-4.37-1.561-9.593-4.164-12.482-8.987,9.211-21.351-5.418-24.978-11.1v-0.693c5.55-.685,12.774-2.345,18.734-0.694-1.1-3.619-2.024-5.837-2.082-11.095-15.541,4.667-23.486-8.607-26.366-20.8l18.04,2.774V98.78c-1.413-4.9.235-10.185,1.388-14.563,4.508,3.05,14.876,10.259,12.489,19.417-0.989,3.8-3.372,4.032-1.388,9.015v-1.387c4.509-4.959,8.049-9.454,13.877-13.176,2.527,12.484,4.5,31.437-10.407,32.594,1.387,3,3.266,5.474,4.163,9.015a33.353,33.353,0,0,1,11.1-7.628c0.341,9.777-3.756,14.552-8.326,15.949,1.388,3.467,2.8,5.84,3.469,9.709,4.626,1.849,10.64,5.086,15.265,6.935,0.463-15.024,1.52-40.328,1.388-45.076-0.315-8.3-27.179-51.744-44.407-54.784-1.63,8.353-9.125,10.162-19.427,9.709V73.815A40.749,40.749,0,0,1,848.09,60.639a11.694,11.694,0,0,1-2.081-.693c-1.774-.724-2.545-0.694-4.163-1.387,5.6,17.635-24,11.438-31.917,6.241l2.081-2.774c6.063-2.679,9.522-6.828,17.346-8.322l-1.387-.694c-18.077-6.124-25.659,18.343-42.325-1.387V50.93c7.37-2.752,20.324-9.365,24.285,1.387l10.407-2.774q-0.346-.693-0.694-1.387l-14.57-9.709c-2.31.491-4.854,1.291-8.327,0-5.51-2.631-8.766-12.133-9.02-20.111h0.694c7.013,2.58,16.632,5.212,18.04,13.176,0.819,4.63-2.155,3.542,1.388,6.935h0.694c-0.191-7.028,1.74-10.928,5.551-13.87h0.693c1.157,4.392,3.17,5.948,2.776,12.483-0.122,3.192-1.849,4.99-3.469,5.548A107.817,107.817,0,0,0,824.5,48.156c-3.832-7.81-3.1-21.291,2.776-27.045a15.481,15.481,0,0,1,2.775,2.774c2.313,3.467,3.932,5.548,6.245,9.015l13.183,0.694c0-.231-4.163-8.784-4.163-9.015-2.865.414-10.905-2.655-6.939-23.578h0.694c6.061,3.338,11.885,9.234,12.49,18.03l-3.47,5.548q0.348,1.04.694,2.08l1.388-.694c1.944-5.364,6.071-6.831,11.1-9.015-0.068,4.892.2,7.628-2.775,13.176-1.728,2.019-2.105,2.367-6.245,2.774,8.262,17.512,20.3,37.466,34,49.93V68.267c-11.354,4.505-18.718-7.521-19.428-18.03h2.082l15.265,6.241V54.4l-4.164-11.789c-8.554,2.253-12.6-8.636-12.489-17.337,10.563,1.959,16.281,8.9,15.265,16.643,0-.462.946-1.644,2.081-3.467a15.836,15.836,0,0,1,3.47-3.467c3.031,8.456,4.555,13.017-1.388,19.417a53.524,53.524,0,0,1,2.775,11.1c7.168-2.283,11.539-17.358,9.714-29.126-10.545-1.457-10.053-12.673-9.02-23.578,0.231,0,3.238,1.387,3.469,1.387,3.885,2.858,14.918,10.906,8.327,20.111,0.027,1.3-.623,1.662,0,6.935a17.974,17.974,0,0,1,9.714-5.548,16.462,16.462,0,0,1,0,6.241c-2.195,8.975-5.4,9.389-10.408,9.015V54.4h0.694c5.229-1.851,11.126-.966,16.652,0-1.907,6.874-9.458,11.572-14.571,12.482-3.309.46-4.626-1.156-6.938-2.08-19.036,13.543,5.711,39.111,10.407,50.623,5.837,14.307-5.189,35.39,0,51.317,2.1,6.448,11.054,9.957,15.959,13.87,11.732,9.357,22.785,28.089,27.754,43.689l1.388-.694c6.836-18.315,10.215-53.543-2.776-67.96-7.586,12.544-23.572-1.017-29.141-5.548l0.693-1.387c7.739-2.23,14.831-5.412,23.591-3.467v-0.694q-2.081-3.813-4.163-7.628c-9.228,8.843-17.089,3.243-25.672-2.774,0.231-.462,7.934-6.514,19.428-4.854-2.022-2.875-7.01-6.758-11.1-10.4-4.371,1.354-14.241,3.315-19.428-15.95,1.85,0,21.643-1.724,20.816,13.869a17.812,17.812,0,0,0,4.163,2.774c0.007-12.344,7.621-18.854,15.264-23.578h0.694c0,0.462,2.082,8.553,2.082,9.015,0.952,8.91-1.391,22.333-11.1,22.191l2.082,2.081,3.469,6.241,0.694-1.387c3.42-3.956,5.569-7.018,11.8-8.322v3.468c-1.86,6.354-6.26,11.094-6.938,14.563L962.576,171.6l2.775-2.081,5.551-11.789c-11.732-.078-14.473-9.96-13.877-22.191,6.769,3.163,11.26,6.93,16.652,11.1q-1.041-7.279-2.081-14.562c-10.665-1.332-11.275-16.355-7.633-25.659l2.082,0.693c4.862,6.011,11.006,8.339,11.8,18.724l-4.163,6.242q0.694,2.773,1.388,5.547c4.235-3.084,7.257-5.973,13.183-7.628v5.548c-1.82,6.432-2.87,9.331-6.938,13.176h-5.551q-0.694,4.507-1.388,9.015a21.357,21.357,0,0,1,12.489.693q-0.693.695-1.387,1.387c-2.348,5.6-7.221,8.174-14.571,6.935-1.892,6.135-7.246,9.82-9.02,14.563q0.347,8.668.694,17.337a266.444,266.444,0,0,1-8.327,35.367c6.649,25.7,17.494,68.566,11.8,99.86,1.85-1.386,3.7-3.467,5.551-4.854-1.709-6.758-.611-9.819,2.775-14.563l1.388,0.694q1.041,3.466,2.081,6.934l1.388-.693c1.8-7.194,7.531-10.725,15.959-11.1-0.845,6.344-3.274,12.274-8.327,14.563-7.144,2.383-8.9-.478-13.877,6.241,4.706,0.587,6.822,2.562,9.02,5.548-5.92,1.76-9.219,2.475-13.877-.693-12.419,9.749-17.957,28.671-20.815,47.849,4.557,0.159,3.553,4.091,4.857,8.322,5.466-3.217,4.224-3.855,9.02-6.935-0.077-10.792,13.585-7.388,18.734-6.241v0.694l-4.857,5.547c-6.846,6.088-11.935,2.055-12.489,1.387-0.463,0-2.662,2.371-4.163,3.468,3.006,2.08,6.707,2.774,9.713,4.854v0.693h-1.387c-4.654,2.653-11.244,2.262-11.8-2.08-23.15,10.749-14.725,104.754,6.939,109.569,0,5.334-.021,10.231,0,15.95-6.79-.134-17.834.98-22.9-10.4-9.869,1.345-18.154,5.2-25.673,6.934-6.261,1.446-15.16-.589-19.428-1.386-11.773-2.2-21.67,2.221-30.529,2.773,0.854-2.09.9-1.269,0.694-3.467-14.366-.973-23.914-10.21-34-15.95-3.778,8.91-6.437,12.229-19.428,11.789,1.417-7.144,5.625-10.227,9.714-14.563l-5.551-1.387c-0.612,6.524-5.388,8.483-12.489,8.322q2.082-4.854,4.163-9.709c-10.752,6.912-19.594,8.031-37.468,7.629v-4.161h0.694c11.213,3.761,22.813.578,27.754-6.242v-0.693l-22.9-9.015V478.11c8.279-.252,12.011,4.549,20.816,5.548v-9.709l1.387,1.387,6.245,5.548v4.854l15.265,0.694h-1.388l-40.243-31.9-21.51-12.483v-0.693l1.388-.694,4.163-.693,38.856,24.965q-0.346-4.508-.694-9.015c-7.151,1.359-8.525-1.981-11.8-6.242-0.358-.81.486-0.981,1.388-0.693,3.238,0.693,5.783.694,9.02,1.387q-2.08-7.281-4.163-14.563c-2.314,1.332-3,1.86-6.938,2.08-5.4-2.69-8.44-6.38-11.1-11.789v-0.693a44.271,44.271,0,0,1,15.265,2.08q-3.123-6.933-6.245-13.869c-2.58,1.744-3.088,2.522-7.632,2.774a26.619,26.619,0,0,1-11.1-9.015c3.279-2.806,8.976-2.667,13.877-2.081q-0.346-1.04-.694-2.08c-2.814-1.945-7.015-6.382-7.632-8.322l2.081-.693,4.164,2.773c0.163-6.732,2.861-10.4,6.244-13.869l1.388,0.693c1.346,3.986,4.379,9.919,2.081,15.257-1.363,2.747-2.45,3.2-5.55,4.161l7.632,14.563h0.694c0.362-5.466,3.724-8.665,4.163-12.483l-2.775-4.854c-1.565-6.485,2.9-11.687,4.857-15.257l1.387,0.694c1.826,4.652,9.142,13.908,0,18.724a13.886,13.886,0,0,0-1.387,4.16c3.973-.963,8.472-1.869,12.489,0-2.942,5.973-5.94,10.557-15.265,10.4-0.8,8.338,2.487,12.116,4.163,19.417q0.348-.693.694-1.387c4.569-5.214,7.963-9.166,14.571-12.483,0.771,21.224-5.264,25.145-11.8,25.659,0.694,1.387,1.388,6.241,2.082,7.628,1.448-3.522,4.723-6.87,7.632-6.935-0.231,3.236,1.152,13.14-6.244,12.483a21.763,21.763,0,0,0,2.081,6.935c6.532,5.985,40.32,35.006,57.59,35.367q-1.387-5.893-2.776-11.789c-8.313,5.832-15.064.948-21.509-4.161l0.694-1.387c5.334-1.712,9.98-4.008,16.652-2.774l-2.775-4.854c-10.448,5.883-18.058-5.509-21.509-13.176,18.692-.79,23.44,9.171,29.835,22.884,3.277-2.393,5.069-4.2,10.408-4.854-0.9,6.179-3.147,8.624-6.939,11.789a33.111,33.111,0,0,1,3.47,8.322C877.694,505.618,887.178,506.08,895.272,505.849ZM846.009,446.21c6.636,0.258,6.314,2.638,10.408,4.854l0.693-7.628,6.245,5.548v6.241l11.795,5.548q-1.039-3.12-2.081-6.241a23.776,23.776,0,0,1,3.469,0c-0.3-1.39,1.208-5.213,3.469-6.935,3.55,6.221,5.788,11.285,2.082,17.337q3.121,6.24,6.245,12.482l1.387-.693c1.744-3.9,4.833-5.51,9.714-6.241v2.774c-2.11,5.49-3.3,6.411-8.326,9.015q2.082,4.159,4.163,8.321l1.388-.693c1.917-5.349,5.815-7.214,9.02-11.1l1.388,0.694c0.761,6.883-.121,16.95,0,21.5l2.775,0.694c-1.522-5.1.735-10.225,3.469-13.176l1.388,0.693c1.983,5.6,3.933,8.706,2.081,15.257l1.388,0.693c5.934,1.372,10.423-.528,17.346-1.387-6.383-22.251-35.789-59.492-57.589-65.88l-6.939,2.774c-8.674,1.994-20.269.787-26.366-1.387Q845.315,442.743,846.009,446.21Zm55.508,58.252q1.041,1.386,2.081,2.774c4.392,0.847,8.47,2.041,12.49,0H914.7l-9.02-4.855C902.992,502.9,902.9,502.809,901.517,504.462Zm14.571-49.237c10.015,9.562,13.763,24.845,25.672,32.593h0.694L934.128,436.5l-1.388.694c-1.971,5.546-6.767,6.618-14.571,6.241Q917.128,449.33,916.088,455.225Zm6.244-33.286c0.463,0.231,2.313.462,2.776,0.693-0.751-3.5.925-6.473,2.081-9.709a15.06,15.06,0,0,1,4.163,5.548c0.72,4.672-.108,6.883-2.081,8.322,1.156,0.693,4.394,3.467,5.551,4.161,0.007-9.7,2.081-19.187,2.775-28.433-4.692-1.444-8.1-5.779-11.795-9.015Q924.066,407.722,922.332,421.939ZM64.415,53.011L46.38,59.945c1.15-3.413,3.358-8.706,1.387-13.176l-8.324,5.548L43.605,44c8.033,2.158,10.318.713,15.954-4.161C59.269,47.57,60.758,49.551,64.415,53.011ZM4.066,505.849l3.468-15.257c7.723,2.38,11.684-.354,16.648-4.16l-0.694-1.387L11.7,482.271l2.081-3.468c9.412,6.679,17.721.157,24.972-4.854l-0.694-1.387c-5.335-1.707-9.167-4.09-15.954-4.854l0.694-1.387,8.324-5.548c4.471,4.244,8.849,5.65,15.954,2.774L42.218,458l-2.775-.693,0.694-1.387c1.387-.694,3.468-1.387,4.856-2.081,4.16,3,9.683,4.91,15.954-.693,9.134,2.319,19.191.462,18.729,0-1.766-5.8-7.955-13.571-13.18-15.95V436.5c3.415,0.673,4.234,1.184,7.63.694,4.418-3.234,7.23-8,7.63-15.256H79.676c-6.633,2.239-12.591,4.02-13.18,12.482L56.785,437.2c2.513-4.359,6.729-16.873,4.162-24.272-10,4.408-21.834,11.594-18.035,25.659H38.056l-11.792-4.161,0.694-1.387c22.814-20,13.346-38.45,25.666-48.543l3.468,3.467,1.387,0.694c8.691,0.144,11.733-2.5,17.342-4.855l-1.387-2.08-13.18-5.548c1.944-3.6,4.716-7.05,9.018-8.321-0.252,12.983,10.253,17.6,22.891,17.336v-0.693c-2.423-6.858-4.5-13.955-9.711-18.03l0.694-1.387,8.324-3.468c3.115,16.518,24.347,7.685,32.6,2.774q-1.041-1.386-2.081-2.774c-6.511-2.868-10.054-7.074-19.423-7.628l2.775-3.467c10.339-.194,12.022-6.778,14.567-14.563-11.172.148-12.4,3.176-15.955,11.1,0-.462-1.058.431-2.081,0.694,0.428-3-1.156-5.548-2.081-7.628a8.792,8.792,0,0,0-2.775,3.467c-1.719,5.183-1.275,4.933.694,9.709l-6.937,4.854a32.381,32.381,0,0,0,.694-13.87H90.775l-2.081,2.081c-5.888,2.229-10.452,7.742-7.63,14.563l-8.324-1.387c0.462-.462,9.943-16.181,10.405-16.643,2.711-.395,10.527-1.442,9.018-18.031-16.669,6.989-6.7,13.629-15.261,22.885-0.925-3-.564-6.118-2.775-9.015l-2.775,2.08c-4.8,7.173-3.388,14.327,0,15.256a19.57,19.57,0,0,1-3.468,4.161c-0.343-5.265-3.169-7.96-6.243-10.4L60.253,351.9c-2.517,8.013-.228,12.42,2.081,13.869-2.312,1.387-8.093,6.242-10.405,7.628H51.235l11.1-47.156a29.733,29.733,0,0,0,8.324,4.854c10.786-3.257,16.264-8.743,20.81-18.03-0.231-.462.561-1.353-2.081-1.387-9.431-.288-15.344-0.4-22.2,2.774l3.468-9.709c9.3,7.161,20.917-.914,22.891-11.095a44.63,44.63,0,0,0-18.035,1.387c0-.231,4.162-8.091,4.162-8.322,5.81-1.641,10.349-4.361,8.324-24.271-16.516,10.113-15.035,20.188-10.405,22.884-0.231,0-4.625,8.322-4.856,8.322-1.1-10.613-8.688-16.985-15.954-21.5v1.387c-6.625,11.663-2.235,30.527,11.1,30.513l-4.162,9.709H63.028c-1.233-6.324-6.532-12.26-12.486-13.87-1.461,10.846-3.6,23.51,8.324,24.965L54.01,337.335l-2.081-1.387c-5.5-14.628-13.349-29.23-16.648-46.463,13.8,0.091,16.6-10.876,18.729-22.191H51.235a49.222,49.222,0,0,0-18.729,10.4l-0.694-9.015h0.694c10.625,3.1,16.275-8.579,17.342-17.337H47.073c-6.2,1.776-10.8,3.173-15.261,6.241l0.694-6.241c9.4-4.042,4.044-19.536-1.387-24.272a25.011,25.011,0,0,0-3.468,4.855c-2.508,6.08-4.331,6.787-2.775,15.256,0.993,3.027,2.2,3.434,4.856,4.854-2.073,8.611,1.173,27.685.694,33.981-1.339-1.962-11.792-9.247-11.792-9.709,0.86-3.187,1.791-12.313-11.792-16.643,0,2.542-.375,4.711,0,7.628,0.868,3.664,1.788,6.529,5.549,9.015,4.172,1.022,5.53.932,7.63,3.467-5.557,1.314-10.266,4.374-11.792,9.709,12.464,1.856,14.856-.614,17.342-4.161,0,1.156,9.077,6.406,7.63,11.1H32.506c-7.333-3.283-17.793-.508-22.2,3.467,6.116,7.779,17.172,14.6,26.359,7.628A304.948,304.948,0,0,0,51.929,348.43c-1.618,6.01-12.949,44.614-14.567,50.624-4.284,10.574-6.531,18.261-16.648,26.352l-1.387-.694-4.162-13.176c13.745,0.379,19.045-11.675,18.729-27.045H33.2c-8.319,3.571-14.041,7.012-20.117,12.482l0.694-8.321c6.855-1.349,9.949-11.56,6.243-18.724l-1.387,1.387c-5.161,2.161-7.586,5.865-9.711,11.1,1.028,5.043,1.946,4.455,2.081,9.708-3.5-2.341-6.768-3.676-12.486-4.161v0.694a31.278,31.278,0,0,0,7.63,11.1H11l0.694,10.4c-3.949-2.2-11.5-6.32-18.035-3.467,3.465,9.515,7.56,18.738,20.116,17.337v6.935C5.525,433.809-4.982,442.8-10.5,448.984l-1.387-.694-2.081-6.241,3.468-1.387c-3.809-4.874-7.951-4.491-9.018-14.563a12.887,12.887,0,0,0,9.711-6.934v-0.694c-3.7-.231-7.569-1.232-11.1.694-1.415-7.6-.928-11.931-0.694-18.724,5.838,1.369,11.062-.379,12.486-5.548-4.15.221-6.92-1.968-11.1-.693l2.081-5.548c5.219,3.515,11.353,1.576,14.567-2.774H-4.952c-2.5-2.382-6.942-3.331-11.1-2.081l2.775-6.241c8.434,11.088,22.743-3.9,26.359-11.095v-0.694c-8.064-.9-14.453-1.153-21.5.694v-0.694c4.836-8.443,14.117-8.257,11.1-23.578H1.985L0.6,343.576c-3.33,1.37-7.582,4.519-9.018,7.628-1.8,3.9,1.988,6.9,1.387,9.015l-15.954,34.674h-0.694c-0.135-7.591-.986-11.114.694-15.256,0.792-7.622-8.507-12.511-16.648-15.95-0.683,12.5,1.27,22.677,13.18,22.884-1.38,6.692-6.313,9.909-11.792,12.483a1.681,1.681,0,0,1-2.081-1.387c-4.162-16.642-15.132-50.662-11.1-53.4,4.033-.126,9.055-0.954,9.711-10.4-6.3.67-7.89,2.162-10.4,4.161a14.336,14.336,0,0,0-5.549-5.548,14.517,14.517,0,0,0-1.387,8.322c0-.462-1.387-0.925-1.387-1.387-3.4-3.258-12.02-44.054,5.549-52.01-2.083,9.325,9.766,14.7,18.729,15.256-1.07-8.939-3.536-16.031-9.018-20.111,4.162-.924,9.018-1.849,13.18-2.774v0.694c-5.358,12.614,12.552,21.088,24.278,21.5-0.483-10.017-4.455-16.629-7.63-23.579,1.85,0,7.168.694,9.018,0.694,0.062,1.964,2.6,3.062,5.549,4.161,5.617-.718,7.894-2.669,11.792-4.855-0.231-.462-10.935-9.235-17.342-2.08-8.529.268-7.8-1.859-18.729-2.774,0.694-.924,1.387-2.543,2.081-3.467,6.212,3.639,9.375-.152,14.567-2.774l-1.387-.694c-2.774-2.6-5.087-2.542-7.63-3.467,0.231-.693,6.705-8.322,6.937-9.015,6.43,0.09,11.928-4.072,9.711-23.578-23.029,13.344-5.483,18.979-15.954,27.045-0.811-4.57-2.654-6.074-4.856-9.015l-1.387,2.081c-2.267,6.523.485,9.857,2.081,11.789-1.761,4.131-9.15,11.883-14.567,12.482v-0.693c2.221-7.152-.189-16.724-3.468-20.8-12.569,12.82-11.443,21.438-6.937,25.659-5.086,2.08-10.868,4.854-15.954,6.935v-2.774L-54.9,248.57C-49.7,231.552-40.62,216.723-32.005,202.8c8.187-1.625,45.245-5.885,49.251-2.081-4.623,2.059-5.611,7.234-4.162,13.176a17.283,17.283,0,0,0,7.63-6.934l1.387,0.693,1.387,2.774c-3.706,5.1-4.668,13.405-.694,19.417a41.6,41.6,0,0,0,4.856-4.854,19.267,19.267,0,0,0,2.775-6.241c0.925,0.924,3,1.671,4.162,2.774,3.7,2.08,6.012,4.161,9.711,6.241-3.577,19.083,22.549,10.157,31.215,6.935-3.7-5.252-15.386-17.7-24.972-13.87l-5.549,4.854-5.549-4.16a11.3,11.3,0,0,0,7.63-4.855c-5.817-1.911-8.288-2.712-13.873-.693l-3.468-5.548v-0.693c4.788,0.111,7.378-.572,9.711-2.774-4.211-5.387-11.071-7.51-14.567-5.548-0.462-.694-1.619-2.774-2.081-3.468l0.694-1.386,15.261-2.774h0.694c-0.2,11.324,7.175,15.961,16.648,17.337-0.522-7.082-2.77-12.143-4.856-17.337l6.937,1.387c-4.163,15.094,8.309,23.87,21.5,25.658l-4.162-18.724h0.694c12.789,8.52,7.511,17.671,30.522,13.87q0.346-.693.694-1.387c-3.7-5.629-8.48-11.313-17.342-11.789-3.484,1.782-3.69,3.057-6.243.693,11.027-.989,18.242-8.523,22.891-15.95-7.047-6.059-22.844-3.3-29.134.694l-3.468,9.015-11.792-5.548,0.694-1.387c4.822-2.213,8.189-7.7,9.711-13.176-11.466-.895-19.88,1.111-22.891,6.242a9.4,9.4,0,0,0-.694,4.854l-8.324.693c2.111-5.406,4.749-9.365,5.549-16.643-14,1.713-22.431,10.013-19.423,18.03-16.42,3.417-34.015,4.061-53.412,4.161,14.382-18.875,38.165-33.663,61.737-42.995,0.44,15.265,16.072,17.526,31.215,15.95-4.282-9.353-9.925-20.142-21.5-22.191l0.694-1.387c0.925-.463,2.544-1.619,3.468-2.081,4.543,8.384,14.561,9.026,25.666,2.081-0.231-.463-1.156-0.925-1.387-1.387-5.22-3.034-9.615-6.425-14.567-7.629l2.081-2.773,3.468-2.081c2.555,17.177,23.67,10.024,33.3,4.854l-2.081-2.773c-7.377-3.466-10.609-9.065-21.5-9.709,1.618-2.311,3.931-5.317,5.549-7.628,0.705,3.025,2.056,5.45,6.243,7.628,14.936,1.328,23.661-9.722,30.521-18.03-9.591-3.387-32.454-10.378-37.458,2.773H78.289l-0.694-9.708c-7.928,1.493-23.438,12.123-20.116,24.271l3.468,6.935c-14.111,6.5-23.391,23.1-40.927,25.659v-0.694c1.125-4.37,1.561-9.593,4.162-12.482,8.985,9.211,21.346-5.418,24.972-11.1v-0.693c-5.548-.685-12.771-2.345-18.729-0.694,1.1-3.619,2.023-5.837,2.081-11.095,15.537,4.667,23.48-8.607,26.359-20.8L40.83,99.473V98.78c1.413-4.9-.235-10.185-1.387-14.563-4.507,3.05-14.872,10.259-12.486,19.417,0.989,3.8,3.371,4.032,1.387,9.015v-1.387c-4.507-4.959-8.046-9.454-13.873-13.176-2.526,12.484-4.5,31.437,10.405,32.594-1.387,3-3.266,5.474-4.162,9.015a33.345,33.345,0,0,0-11.1-7.628c-0.34,9.777,3.755,14.552,8.324,15.949-1.387,3.467-2.8,5.84-3.468,9.709C9.847,159.574,3.834,162.811-.79,164.66c-0.462-15.024-1.519-40.328-1.387-45.076,0.315-8.3,27.172-51.744,44.395-54.784,1.629,8.353,9.123,10.162,19.423,9.709V73.815a40.747,40.747,0,0,0-10.4-13.176,11.694,11.694,0,0,0,2.081-.693c1.773-.724,2.544-0.694,4.162-1.387C51.877,76.193,81.469,70,89.387,64.8l-2.081-2.774c-6.062-2.679-9.52-6.828-17.342-8.322l1.387-.694C89.424,46.886,97,71.354,113.666,51.624V50.93c-7.369-2.752-20.319-9.365-24.279,1.387l-10.4-2.774,0.694-1.387,14.567-9.709c2.309,0.491,4.852,1.291,8.324,0,5.509-2.631,8.764-12.133,9.018-20.111h-0.694c-7.011,2.58-16.628,5.212-18.035,13.176-0.818,4.63,2.155,3.542-1.387,6.935H90.775c0.191-7.028-1.74-10.928-5.549-13.87H84.532c-1.156,4.392-3.169,5.948-2.775,12.483,0.121,3.192,1.849,4.99,3.468,5.548A107.891,107.891,0,0,1,74.82,48.156c3.832-7.81,3.1-21.291-2.775-27.045a15.477,15.477,0,0,0-2.775,2.774c-2.312,3.467-3.931,5.548-6.243,9.015l-13.18.694c0-.231,4.162-8.784,4.162-9.015,2.864,0.414,10.9-2.655,6.937-23.578H60.253c-6.059,3.338-11.882,9.234-12.486,18.03l3.468,5.548-0.694,2.08-1.387-.694c-1.943-5.364-6.07-6.831-11.1-9.015,0.069,4.892-.2,7.628,2.775,13.176,1.728,2.019,2.1,2.367,6.243,2.774-8.259,17.512-20.3,37.466-33.99,49.93V68.267c11.351,4.505,18.713-7.521,19.423-18.03H30.425L15.165,56.478V54.4l4.162-11.789c8.552,2.253,12.6-8.636,12.486-17.337-10.561,1.959-16.277,8.9-15.261,16.643,0-.462-0.946-1.644-2.081-3.467A15.845,15.845,0,0,0,11,34.98C7.972,43.436,6.449,48,12.39,54.4a53.556,53.556,0,0,0-2.775,11.1C2.45,63.21-1.921,48.135-.1,36.367,10.447,34.91,9.954,23.694,8.922,12.789c-0.231,0-3.237,1.387-3.468,1.387C1.57,17.034-9.461,25.082-2.871,34.287c-0.027,1.3.623,1.662,0,6.935a17.972,17.972,0,0,0-9.711-5.548,16.456,16.456,0,0,0,0,6.241c2.194,8.975,5.4,9.389,10.405,9.015V54.4H-2.871c-5.228-1.851-11.124-.966-16.648,0,1.906,6.874,9.456,11.572,14.567,12.482,3.309,0.46,4.625-1.156,6.937-2.08,19.031,13.543-5.71,39.111-10.405,50.623-5.835,14.307,5.188,35.39,0,51.317-2.1,6.448-11.05,9.957-15.954,13.87C-36.1,189.967-47.153,208.7-52.121,224.3l-1.387-.694c-6.834-18.315-10.212-53.543,2.775-67.96,7.585,12.544,23.566-1.017,29.134-5.548l-0.694-1.387c-7.737-2.23-14.826-5.412-23.585-3.467v-0.694l4.162-7.628c9.226,8.843,17.085,3.243,25.666-2.774-0.231-.462-7.932-6.514-19.423-4.854,2.021-2.875,7.008-6.758,11.1-10.4,4.37,1.354,14.237,3.315,19.423-15.95-1.85,0-21.637-1.724-20.81,13.869a17.8,17.8,0,0,1-4.162,2.774c-0.007-12.344-7.619-18.854-15.261-23.578h-0.694c0,0.462-2.081,8.553-2.081,9.015-0.951,8.91,1.39,22.333,11.1,22.191l-2.081,2.081-3.468,6.241-0.694-1.387c-3.42-3.956-5.567-7.018-11.792-8.322v3.468c1.86,6.354,6.258,11.094,6.937,14.563L-63.22,171.6l-2.775-2.081-5.549-11.789c11.729-.078,14.47-9.96,13.873-22.191-6.767,3.163-11.257,6.93-16.648,11.1l2.081-14.562c10.662-1.332,11.271-16.355,7.63-25.659l-2.081.693c-4.861,6.011-11,8.339-11.792,18.724l4.162,6.242-1.387,5.547c-4.234-3.084-7.255-5.973-13.18-7.628v5.548c1.82,6.432,2.869,9.331,6.937,13.176H-76.4l1.387,9.015a21.347,21.347,0,0,0-12.486.693l1.387,1.387c2.347,5.6,7.219,8.174,14.567,6.935,1.892,6.135,7.244,9.82,9.018,14.563q-0.347,8.668-.694,17.337A266.547,266.547,0,0,0-54.9,234.007c-6.647,25.7-17.489,68.566-11.792,99.86-1.85-1.386-3.7-3.467-5.549-4.854,1.708-6.758.61-9.819-2.775-14.563l-1.387.694-2.081,6.934-1.387-.693c-1.8-7.194-7.529-10.725-15.954-11.1,0.844,6.344,3.273,12.274,8.324,14.563,7.143,2.383,8.9-.478,13.873,6.241-4.7.587-6.819,2.562-9.018,5.548,5.918,1.76,9.217,2.475,13.873-.693,12.417,9.749,17.953,28.671,20.81,47.849-4.555.159-3.552,4.091-4.856,8.322-5.464-3.217-4.223-3.855-9.018-6.935,0.077-10.792-13.582-7.388-18.729-6.241v0.694l4.856,5.547c6.844,6.088,11.931,2.055,12.486,1.387,0.462,0,2.661,2.371,4.162,3.468-3.006,2.08-6.706,2.774-9.711,4.854v0.693h1.387c4.652,2.653,11.241,2.262,11.792-2.08,23.144,10.749,14.721,104.754-6.937,109.569,0,5.334.021,10.231,0,15.95,6.788-.134,17.829.98,22.891-10.4,9.866,1.345,18.149,5.2,25.666,6.934,6.259,1.446,15.156-.589,19.423-1.386,11.77-2.2,21.665,2.221,30.521,2.773-0.854-2.09-.9-1.269-0.694-3.467,14.362-.973,23.907-10.21,33.99-15.95,3.777,8.91,6.435,12.229,19.423,11.789-1.416-7.144-5.623-10.227-9.711-14.563l5.549-1.387c0.612,6.524,5.387,8.483,12.486,8.322l-4.162-9.709c10.749,6.912,19.589,8.031,37.458,7.629v-4.161H129.62c-11.21,3.761-22.807.578-27.747-6.242v-0.693l22.891-9.015V478.11c-8.276-.252-12.007,4.549-20.81,5.548v-9.709l-1.387,1.387-6.243,5.548v4.854l-15.261.694h1.387l40.233-31.9,21.5-12.483v-0.693l-1.387-.694-4.162-.693L99.792,464.934q0.346-4.508.694-9.015c7.149,1.359,8.522-1.981,11.792-6.242,0.359-.81-0.486-0.981-1.387-0.693-3.237.693-5.781,0.694-9.018,1.387l4.162-14.563c2.314,1.332,3,1.86,6.937,2.08,5.4-2.69,8.438-6.38,11.1-11.789v-0.693a44.25,44.25,0,0,0-15.261,2.08l6.243-13.869c2.579,1.744,3.087,2.522,7.63,2.774a26.61,26.61,0,0,0,11.1-9.015c-3.278-2.806-8.973-2.667-13.873-2.081l0.693-2.08c2.814-1.945,7.014-6.382,7.631-8.322l-2.081-.693-4.162,2.773c-0.164-6.732-2.861-10.4-6.243-13.869l-1.388.693c-1.346,3.986-4.377,9.919-2.081,15.257,1.363,2.747,2.45,3.2,5.55,4.161L110.2,417.778H109.5c-0.363-5.466-3.724-8.665-4.162-12.483q1.386-2.427,2.774-4.854c1.564-6.485-2.895-11.687-4.855-15.257l-1.388.694c-1.825,4.652-9.14,13.908,0,18.724a13.919,13.919,0,0,1,1.388,4.16c-3.973-.963-8.471-1.869-12.486,0,2.941,5.973,5.938,10.557,15.26,10.4,0.806,8.338-2.486,12.116-4.162,19.417L101.18,437.2c-4.568-5.214-7.961-9.166-14.568-12.483-0.771,21.224,5.263,25.145,11.792,25.659-0.694,1.387-1.387,6.241-2.081,7.628-1.448-3.522-4.722-6.87-7.63-6.935,0.231,3.236-1.151,13.14,6.243,12.483a21.756,21.756,0,0,1-2.081,6.935c-6.53,5.985-40.309,35.006-57.575,35.367l2.775-11.789c8.312,5.832,15.061.948,21.5-4.161l-0.694-1.387c-5.333-1.712-9.978-4.008-16.648-2.774l2.775-4.854c10.445,5.883,18.053-5.509,21.5-13.176-18.688-.79-23.434,9.171-29.828,22.884-3.276-2.393-5.068-4.2-10.4-4.854,0.9,6.179,3.146,8.624,6.937,11.789a33.1,33.1,0,0,0-3.468,8.322C21.64,505.618,12.158,506.08,4.066,505.849ZM53.316,446.21c-6.634.258-6.312,2.638-10.405,4.854l-0.694-7.628-6.243,5.548v6.241l-11.792,5.548,2.081-6.241a23.768,23.768,0,0,0-3.468,0c0.3-1.39-1.207-5.213-3.468-6.935-3.549,6.221-5.786,11.285-2.081,17.337L11,477.416l-1.387-.693c-1.743-3.9-4.832-5.51-9.711-6.241v2.774c2.11,5.49,3.3,6.411,8.324,9.015l-4.162,8.321L2.678,489.9c-1.917-5.349-5.813-7.214-9.018-11.1l-1.387.694c-0.761,6.883.12,16.95,0,21.5l-2.775.694c1.521-5.1-.735-10.225-3.468-13.176l-1.387.693c-1.983,5.6-3.932,8.706-2.081,15.257l-1.387.693c-5.932,1.372-10.42-.528-17.342-1.387,6.382-22.251,35.78-59.492,57.575-65.88l6.937,2.774c8.672,1.994,20.264.787,26.359-1.387Z"/>
</svg>
